<svg width="130" height="28" fill="none" xmlns="http://www.w3.org/2000/svg"><path d="M17.171 24.065H0v3.563h17.171v-3.563zM124.16 12.141l5.416-5.98h-4.026l-4.438 4.977V6.16h-3.216v12.554h3.216v-5.287l4.746 5.287H130l-5.84-6.573zm-11.923-1.299h-4.438V6.16h-3.202v12.554h3.202v-4.952h4.438v4.952h3.216V6.16h-3.216v4.682zM19.06 12.964c-.077 2.341-.373 2.804-1.698 2.804v2.946h.489c3.28 0 4.064-1.698 4.193-5.467l.128-4.167h3.074v9.634h3.216V6.16h-9.184l-.218 6.804zm17.393-2.997h-2.315V6.16h-3.216v12.554h5.57c3.498 0 4.746-2.277 4.746-4.412 0-2.765-1.736-4.335-4.785-4.335zm-.257 5.981h-2.07v-3.19h2.07c1.119 0 1.788.49 1.788 1.544 0 1.132-.643 1.646-1.788 1.646zM51.692 5.877V1.208h-3.215v4.656c-3.679.309-6.148 2.92-6.148 6.56 0 3.653 2.47 6.264 6.148 6.573v4.72h3.215v-4.72c3.679-.296 6.149-2.92 6.149-6.573 0-3.653-2.47-6.264-6.149-6.547zm-3.215 10.097c-1.788-.244-2.894-1.582-2.894-3.55 0-1.968 1.119-3.306 2.894-3.55v7.1zm3.215 0V8.887c1.788.244 2.894 1.582 2.894 3.55 0 1.955-1.106 3.293-2.894 3.537zm18.19-1.124v-4.218c0-3.075-1.968-5.017-5.26-5.017-3.41 0-5.223 2.045-5.377 4.193h3.267c.115-.463.604-1.273 2.122-1.273 1.248 0 2.045.579 2.045 2.097h-3.19c-2.855 0-4.553 1.492-4.553 3.987 0 2.61 1.852 4.386 4.528 4.386 1.955 0 3.048-.926 3.524-1.634.424.85 1.363 1.312 2.585 1.312h1.12V15.79c-.58.026-.811-.244-.811-.939zm-3.203-.823c0 1.454-1.029 2.277-2.367 2.277-1.157 0-2.07-.425-2.07-1.672 0-1.222 1.003-1.428 1.878-1.428h2.56v.823zm16.966-6.079h-3.588v-3.55h8.308v-3.19H76.688v17.506h6.958c3.859 0 6.058-1.917 6.058-5.441 0-3.319-2.212-5.325-6.058-5.325zm-.167 7.601h-3.434v-4.553h3.434c1.788 0 2.791.823 2.791 2.277 0 1.492-1.003 2.277-2.791 2.277zm18.508-.699v-4.218c0-3.075-1.968-5.017-5.26-5.017-3.41 0-5.223 2.045-5.377 4.193h3.254c.116-.463.605-1.273 2.122-1.273 1.248 0 2.046.579 2.046 2.097h-3.19c-2.856 0-4.554 1.492-4.554 3.987 0 2.61 1.852 4.386 4.528 4.386 1.955 0 3.048-.926 3.524-1.634.425.85 1.364 1.312 2.586 1.312h1.119V15.79c-.579.026-.798-.244-.798-.939zm-3.216-.823c0 1.454-1.028 2.277-2.366 2.277-1.158 0-2.071-.425-2.071-1.672 0-1.222 1.003-1.428 1.878-1.428h2.56v.823zM11.702 3.611C11.212 2.158 10.647 1 8.718 1c-1.93 0-2.534 1.145-3.049 2.611C.28 18.917.357 18.711.357 18.711h3.524l1.222-3.588h6.779l1.132 3.589h3.742l-5.054-15.1zm-5.57 8.476 2.405-7.151h.09l2.277 7.151H6.132z" fill="#fff"/></svg>